:FULLY-SPECIFIED
:FORCE-ALL-JOINTS-BE-3DOF
:DEGREES
194
root 8.14334 16.6202 -10.2091 7.62345 3.6628 -3.27599
lfemur -39.878 5.39019 -18.2076
ltibia 50.6401 0 0
lfoot -17.5027 13.3187 0
ltoes -8.38137 0 0
rfemur -8.9946 4.93363 29.0324
rtibia 21.5467 0 0
rfoot -20.1958 2.64484 0
rtoes -12.5691 0 0
lowerback -4.78548 1.98793 1.46041
upperback -1.74394 2.51587 3.33843
thorax 0.790855 1.27325 2.77395
lowerneck -12.997 -6.84837 -15.7817
upperneck 13.0224 -8.92454 16.3199
head 7.62017 -3.79825 7.07391
lclavicle -1.49854e-14 -1.78138e-14 0
lhumerus -50.5413 -11.8747 97.0567
lradius 32.1975 0 0
lwrist 16.9526 0 0
lhand -16.542 -25.6227 0
lfingers 7.12502 0 0
lthumb 9.67879 4.16032 0
rclavicle -1.49854e-14 -1.78138e-14 0
rhumerus -38.2859 9.86061 -78.6931
rradius 48.4537 0 0
rwrist -23.5733 0 0
rhand -32.9551 -26.8448 0
rfingers 7.12502 0 0
rthumb -6.17083 -56.7362 0
195
root 8.14969 16.6119 -10.0753 7.6661 3.43628 -3.46053
lfemur -40.3919 5.05903 -17.8242
ltibia 49.3922 0 0
lfoot -17.6339 13.492 0
ltoes -8.8982 0 0
rfemur -7.9129 5.03878 29.2527
rtibia 20.3942 0 0
rfoot -20.0844 2.84916 0
rtoes -12.4596 0 0
lowerback -4.92733 2.0505 1.59661
upperback -1.70118 2.58122 3.37079
thorax 0.915641 1.30615 2.74366
lowerneck -13.0216 -6.82595 -15.7527
upperneck 13.0349 -8.89304 16.2965
head 7.62021 -3.78229 7.06455
lclavicle -1.57423e-14 -1.78661e-14 0
lhumerus -50.6618 -11.8584 97.0886
lradius 32.0203 0 0
lwrist 16.6979 0 0
lhand -16.5459 -25.9301 0
lfingers 7.12502 0 0
lthumb 9.67513 3.85448 0
rclavicle -1.57423e-14 -1.78661e-14 0
rhumerus -38.1985 10.0566 -78.8981
rradius 48.8347 0 0
rwrist -23.7423 0 0
rhand -32.9276 -26.9341 0
rfingers 7.12502 0 0
rthumb -6.14436 -56.8263 0
196
root 8.15666 16.6028 -9.94101 7.71069 3.20652 -3.65015
lfemur -40.8697 4.71388 -17.4138
ltibia 48.0637 0 0
lfoot -17.7363 13.6639 0
ltoes -9.45181 0 0
rfemur -6.81007 5.14478 29.4744
rtibia 19.2013 0 0
rfoot -19.9541 3.05882 0
rtoes -12.3435 0 0
lowerback -5.07764 2.10958 1.73621
upperback -1.65609 2.64118 3.40493
thorax 1.04819 1.33634 2.71339
lowerneck -13.0567 -6.80196 -15.7204
upperneck 13.0522 -8.85831 16.269
head 7.62282 -3.76452 7.05361
lclavicle -1.64453e-14 -1.79132e-14 0
lhumerus -50.7736 -11.8266 97.1128
lradius 31.8152 0 0
lwrist 16.3934 0 0
lhand -16.5333 -26.2448 0
lfingers 7.12502 0 0
lthumb 9.68737 3.54019 0
rclavicle -1.64453e-14 -1.79132e-14 0
rhumerus -38.1178 10.2575 -79.1174
rradius 49.2107 0 0
rwrist -23.9115 0 0
rhand -32.8943 -27.0277 0
rfingers 7.12502 0 0
rthumb -6.11217 -56.9208 0
197
root 8.16423 16.593 -9.8062 7.75702 2.97396 -3.84365
lfemur -41.3131 4.35737 -16.9807
ltibia 46.6655 0 0
lfoot -17.8113 13.8335 0
ltoes -10.0363 0 0
rfemur -5.69071 5.25092 29.6961
rtibia 17.9766 0 0
rfoot -19.8049 3.27272 0
rtoes -12.2221 0 0
lowerback -5.23521 2.16528 1.8783
upperback -1.60912 2.69603 3.4405
thorax 1.18732 1.36397 2.68321
lowerneck -13.1016 -6.77654 -15.6853
upperneck 13.0743 -8.82065 16.2376
head 7.62791 -3.74511 7.0412
lclavicle -1.7094e-14 -1.7953e-14 0
lhumerus -50.8767 -11.7805 97.1294
lradius 31.5846 0 0
lwrist 16.0431 0 0
lhand -16.5052 -26.5649 0
lfingers 7.12502 0 0
lthumb 9.71451 3.21933 0
rclavicle -1.7094e-14 -1.7953e-14 0
rhumerus -38.0438 10.462 -79.3495
rradius 49.5804 0 0
rwrist -24.0804 0 0
rhand -32.8555 -27.125 0
rfingers 7.12502 0 0
rthumb -6.07469 -57.0191 0
198
root 8.17242 16.5825 -9.67083 7.80488 2.73903 -4.03982
lfemur -41.7236 3.99213 -16.5289
ltibia 45.2087 0 0
lfoot -17.8609 13.9998 0
ltoes -10.6457 0 0
rfemur -4.55943 5.35647 29.9161
rtibia 16.7287 0 0
rfoot -19.6371 3.48977 0
rtoes -12.0965 0 0
lowerback -5.39886 2.2177 2.02195
upperback -1.56069 2.74605 3.47712
thorax 1.33186 1.38917 2.6532
lowerneck -13.1558 -6.74986 -15.6474
upperneck 13.1008 -8.78034 16.2027
head 7.63539 -3.7242 7.02745
lclavicle -1.76879e-14 -1.79832e-14 0
lhumerus -50.9711 -11.7211 97.1385
lradius 31.3308 0 0
lwrist 15.6511 0 0
lhand -16.4627 -26.8887 0
lfingers 7.12502 0 0
lthumb 9.75555 2.89378 0
rclavicle -1.76879e-14 -1.79832e-14 0
rhumerus -37.977 10.6693 -79.593
rradius 49.9426 0 0
rwrist -24.2485 0 0
rhand -32.8116 -27.2252 0
rfingers 7.12502 0 0
rthumb -6.03236 -57.1205 0
199
root 8.18122 16.5715 -9.53485 7.85406 2.50218 -4.23746
lfemur -42.1029 3.6208 -16.0626
ltibia 43.7041 0 0
lfoot -17.8866 14.1619 0
ltoes -11.2742 0 0
rfemur -3.42083 5.46073 30.133
rtibia 15.4659 0 0
rfoot -19.4509 3.70887 0
rtoes -11.9678 0 0
lowerback -5.56742 2.26697 2.16625
upperback -1.51123 2.79153 3.5144
thorax 1.48065 1.41209 2.62344
lowerneck -13.2185 -6.72205 -15.6072
upperneck 13.1316 -8.73768 16.1647
head 7.64516 -3.70194 7.0125
lclavicle -1.82263e-14 -1.80016e-14 0
lhumerus -51.0568 -11.6495 97.1401
lradius 31.0562 0 0
lwrist 15.2213 0 0
lhand -16.4067 -27.2142 0
lfingers 7.12502 0 0
lthumb 9.80948 2.56543 0
rclavicle -1.82263e-14 -1.80016e-14 0
rhumerus -37.9176 10.878 -79.8464
rradius 50.2959 0 0
rwrist -24.4154 0 0
rhand -32.7632 -27.3277 0
rfingers 7.12502 0 0
rthumb -5.98561 -57.2242 0
200
root 8.19064 16.5601 -9.39826 7.90435 2.26386 -4.43536
lfemur -42.4527 3.24602 -15.5859
ltibia 42.1629 0 0
lfoot -17.8901 14.3188 0
ltoes -11.9158 0 0
rfemur -2.27949 5.56298 30.3453
rtibia 14.1969 0 0
rfoot -19.2465 3.92893 0
rtoes -11.8373 0 0
lowerback -5.73969 2.31318 2.31028
upperback -1.46118 2.83275 3.55197
thorax 1.63251 1.43287 2.594
lowerneck -13.2892 -6.69326 -15.5647
upperneck 13.1666 -8.69296 16.1238
head 7.65714 -3.67851 6.99645
lclavicle -1.87089e-14 -1.80059e-14 0
lhumerus -51.134 -11.5668 97.1343
lradius 30.7632 0 0
lwrist 14.7579 0 0
lhand -16.3385 -27.5398 0
lfingers 7.12502 0 0
lthumb 9.8753 2.23614 0
rclavicle -1.87089e-14 -1.80059e-14 0
rhumerus -37.8658 11.0871 -80.1084
rradius 50.6389 0 0
rwrist -24.5806 0 0
rhand -32.7106 -27.4317 0
rfingers 7.12502 0 0
rthumb -5.93487 -57.3296 0
201
root 8.20068 16.5484 -9.261 7.95556 2.02449 -4.63231
lfemur -42.7746 2.8704 -15.1028
ltibia 40.596 0 0
lfoot -17.8731 14.4698 0
ltoes -12.5647 0 0
rfemur -1.14002 5.66248 30.5515
rtibia 12.9302 0 0
rfoot -19.0239 4.14886 0
rtoes -11.7061 0 0
lowerback -5.9145 2.35644 2.45313
upperback -1.41097 2.86999 3.58947
thorax 1.78626 1.45165 2.56497
lowerneck -13.3671 -6.66366 -15.5203
upperneck 13.2056 -8.64648 16.0803
head 7.67124 -3.65404 6.97943
lclavicle -1.91351e-14 -1.79939e-14 0
lhumerus -51.2024 -11.474 97.1213
lradius 30.4541 0 0
lwrist 14.2648 0 0
lhand -16.2589 -27.8636 0
lfingers 7.12502 0 0
lthumb 9.95199 1.90781 0
rclavicle -1.91351e-14 -1.79939e-14 0
rhumerus -37.8218 11.2956 -80.3775
rradius 50.9705 0 0
rwrist -24.7436 0 0
rhand -32.6544 -27.5367 0
rfingers 7.12502 0 0
rthumb -5.88056 -57.436 0
